<svg id="Layer_1" data-name="Layer 1" xmlns="http://www.w3.org/2000/svg" viewBox="0 0 501.85 501.63"><title>paws_claws</title><path d="M279.18,401.68c-1.49-3.45-1.31-6.73-3.16-9.46-.8-1.18-.69-2.93-1.34-4.26-2.28-4.65-3.61-9.79-7.26-13.75-2-2.14-3.52-4.7-5.58-6.75-1.86-1.85-3.59-3.89-6-5.25-1.65-.95-2.91-2.57-4.54-3.56a98.13,98.13,0,0,0-9-4.89,51.28,51.28,0,0,0-7.08-2.62c-4.49-1.39-9-2.89-13.67-3.44-1.12-.14-2.19-.65-3.31-.79q-8.1-1.05-16.2-2c-4.45-.51-8.9-1-13.35-1.44-2.92-.29-5.85-.44-8.76-.7a76.72,76.72,0,0,1-8.46-.87,34.21,34.21,0,0,1-6.18-2.19,22.23,22.23,0,0,1-11.22-10.61,76.69,76.69,0,0,1-5-11.59,72,72,0,0,1-3.35-18.13c-.33-4.7-.68-9.39-.94-14.09a5.4,5.4,0,0,1,2.69-5.44c3.14-2,6.47-3.6,9.75-5.32s6.62-3.6,10-5.33c2.83-1.46,5.74-2.77,8.57-4.21s5.8-3.12,8.73-4.61c4.05-2,8.14-4,12.2-6,2-1,4-2.2,6-3.2a5.17,5.17,0,0,0,3-4.43,10.61,10.61,0,0,0,.15-2.91,28.12,28.12,0,0,1,2.36-16.67,26.52,26.52,0,0,1,6.52-9c5.25-4.67,11.66-6.93,18.24-8.87a86.76,86.76,0,0,1,21.16-3.37c5.37-.21,10.75-.57,16.11-.37,5.52.2,11,.89,16.52,1.55a109.83,109.83,0,0,1,27.57,7.13c4.67,1.86,9.13,4.26,13.63,6.54a65.19,65.19,0,0,1,14.06,10.37,52,52,0,0,1,10.79,13.31c1.16,2.11,2.49,4.13,3.57,6.27.87,1.72,1.5,3.55,2.2,5.34.63,1.58,1.26,3.16,1.83,4.77a141.48,141.48,0,0,1,5.38,21.74,29.41,29.41,0,0,1,.45,4.87c.09,7.56.34,15.14.06,22.69-.17,4.42-1.41,8.79-1.87,13.2a45,45,0,0,1-1.88,9.3c-1.24,3.84-2.32,7.75-3.75,11.52a49,49,0,0,1-8.94,15.72c-2.45,3.38-5.8,5.69-9.36,7.72a15.26,15.26,0,0,1-3.72,1.6,25.55,25.55,0,0,1-17.53-1.43,2.71,2.71,0,0,0-1.15-.33,54.24,54.24,0,0,0-6,.31,26.6,26.6,0,0,0-13.54,5.94,65.46,65.46,0,0,0-8,8.49c-1.33,1.58-2.1,3.63-3.13,5.47q-3.47,6.14-6.95,12.27A17.85,17.85,0,0,1,279.18,401.68ZM264.87,216.42l0-.51c-5.17.47-10.34,1-15.52,1.38a63.44,63.44,0,0,0-21.66,5.31c-5.83,2.6-9.87,6.78-10.5,13.47a46,46,0,0,0-.06,6.1,24.13,24.13,0,0,1-.7,8,16.63,16.63,0,0,1-7.2,9.63c-2.6,1.65-5.35,3.07-8.08,4.5q-6.87,3.62-13.81,7.12c-3,1.5-6,2.81-8.93,4.41-4.48,2.46-8.71,5.37-13.53,7.23a3.54,3.54,0,0,0-2.29,3.43,19.57,19.57,0,0,1-.84,5.52,16.92,16.92,0,0,1-3.06,5.71,5.89,5.89,0,0,0-1.69,5.51c1.22,6.22,2.29,12.49,5.08,18.26,2.19,4.55,5.33,8.31,10.56,9.27,4.63.85,9.34,1.31,14,1.73,6.57.58,13.16.84,19.72,1.45,4.21.39,8.37,1.17,12.55,1.79.32,0,.64.11,1,.18,3.22.79,6.4,1.81,9.66,2.31A59.16,59.16,0,0,1,242,342c3.9,1.52,7.64,3.46,11.44,5.22,5.49,2.53,10.64,5.53,14.59,10.25a32,32,0,0,0,2.33,2.47,49.33,49.33,0,0,1,4.86,4.72c2.11,2.76,3.91,5.76,5.8,8.68.61.95,1.17,1.36,2,.28a37.69,37.69,0,0,1,10.47-9.38c2.85-1.69,5.64-3.5,8.59-5,2.17-1.1,2.34-1.62.9-3.49a65.42,65.42,0,0,1-6.28-9,69.92,69.92,0,0,1-5.06-12.09,125.16,125.16,0,0,1-3.17-14.24,70.72,70.72,0,0,1-1.07-9.95c-.23-6.5-.41-13-.23-19.51.13-4.63.9-9.23,1.37-13.85.13-1.38.13-2.78.35-4.14q1.23-7.45,2.59-14.89c.5-2.71,1.07-5.4,1.68-8.09.76-3.32,1.51-6.65,2.42-9.93.78-2.79,1.32-5.75,4.6-7a4.41,4.41,0,0,1,4.95,1c1.31,1.3,2.73,2.81,2.05,5.15-1.24,4.27-2.5,8.56-3.41,12.91-1.46,6.91-2.8,13.86-3.89,20.84a168,168,0,0,0-1.85,16.74c-.68,12.38-.64,24.73,2.45,36.9a59.12,59.12,0,0,0,6.77,17,34.9,34.9,0,0,0,17.09,14.59c4.37,1.71,8.88,1.92,12.78-1a30.88,30.88,0,0,0,6.36-6.65,77.29,77.29,0,0,0,5.35-9.44,30.77,30.77,0,0,0,2-5.4c.62-2.1.87-4.3,1.52-6.38,2.48-7.85,2.78-16,3.38-24.1.57-7.65-.48-15.26-1.37-22.86A92.9,92.9,0,0,0,349,260.54a62.84,62.84,0,0,0-5.26-10.46c-4.88-8-11.63-13.85-19.38-18.75a69.45,69.45,0,0,0-8.34-4.45A103,103,0,0,0,305,222.47,115.55,115.55,0,0,0,291,218.85c-5.82-1.08-11.72-1.76-17.61-2.38A84.21,84.21,0,0,0,264.87,216.42Z" transform="translate(-6.21 -8.24)"/><path d="M356.51,508.41c-10,.24-18.67.64-27.39.62-7.91,0-15.81-.5-23.71-.75-2.78-.09-5.55,0-8.32-.16-5.84-.27-11.68-.69-17.52-.89-9.21-.32-18.42-.47-27.63-.77-5.86-.2-11.71-.71-17.57-.76-4.23,0-8.46.45-12.69.71-3,.19-6,.43-9,.6a35.13,35.13,0,0,0-11.65,2.2,4.61,4.61,0,0,1-1.44.22c-2.11.14-2.14.14-2.49-1.94a46.73,46.73,0,0,1,1.12-21,38.16,38.16,0,0,1,4.46-10.62,32.78,32.78,0,0,1,10.59-10.43,44.61,44.61,0,0,1,10-4.21,45.81,45.81,0,0,1,9.36-1.5c4.14-.37,8.32-.29,12.44-.75a64.26,64.26,0,0,0,8-1.88c1.09-.27,2.21-.47,3.27-.84a28.77,28.77,0,0,0,12.5-8.78,23.83,23.83,0,0,0,4.15-8.65,68.15,68.15,0,0,0,2.13-11.45c.33-2.72.44-5.61,2.06-8.15.69-1.08.46-2.71.95-4a72.43,72.43,0,0,1,8.85-16.9c2.3-3.1,4.85-6.06,8.39-8,3.24-1.78,6.27-3.93,9.42-5.87a15.08,15.08,0,0,1,2.6-1.31,117,117,0,0,1,15.72-4.72c8.95-2,18-1.86,27-1.39,5.42.29,10.81,1.18,16.22,1.72,5.81.58,11.64,1,17.46,1.63a82.67,82.67,0,0,1,9.41,1.37c3.49.78,5.06,2.76,4.75,6-.22,2.32-2.43,4.71-4.76,4.7s-4.71-.3-7.06-.54c-3.88-.4-7.76-.86-11.63-1.29-6.3-.71-12.6-1.33-18.88-2.13a105.36,105.36,0,0,0-21-.57,79.94,79.94,0,0,0-14,2,56,56,0,0,0-14.51,6.12,29.19,29.19,0,0,0-2.8,2.32c-4.69,3.56-8.81,7.58-11.62,12.85A53.87,53.87,0,0,0,285.89,429c-.94,6.39-1.75,12.82-4.7,18.72a36.62,36.62,0,0,1-9,11.64,38.09,38.09,0,0,1-15.7,7.94c-3.37.85-6.7,1.88-10.1,2.53-2.22.42-4.56.19-6.82.44-5.34.6-10.71,1.08-16,2.07a14.88,14.88,0,0,0-7,3.94,33.21,33.21,0,0,0-3.44,3.57c-3.12,3.82-4.09,8.4-5.3,12.93a8.37,8.37,0,0,0,0,1.94c0,1.17.6,1.64,1.69,1.56l12.91-1c1.05-.09,2.09-.31,3.14-.31,7.75,0,15.5-.14,23.25,0,5.69.14,11.37.76,17.07,1,3.74.18,7.5.06,11.25.2,13.5.51,27,1.28,40.5,1.54,11.41.22,22.83-.12,34.25-.23,2.6,0,5.22-.07,7.82-.26,5.5-.4,11-.72,16.49-1.43,4.32-.57,8.58-1.64,12.85-2.53a84.45,84.45,0,0,0,8.94-2c3.77-1.22,7.41-2.83,11.11-4.29a10.5,10.5,0,0,1,1.32-.62c4.31-1.08,7.88-3.49,11.51-6a56.82,56.82,0,0,0,9.37-8.47c3-3.26,4.93-7.21,6.59-11.25a109.44,109.44,0,0,0,6.62-22.07,50.48,50.48,0,0,0,.54-15.05,44.28,44.28,0,0,0-7.5-19.87,59.68,59.68,0,0,0-10.28-11.57c-4.91-4.21-10-8.18-15.14-12.17-3.63-2.83-7.46-5.4-11.05-8.27-6.79-5.42-13.41-11.1-18.83-17.89-3.13-3.92-6.21-8.07-7.68-13.08-.61-2.1-1.48-4.12-2.27-6.16-1.33-3.46,1.25-8.82,6.28-7.83a4.47,4.47,0,0,1,3.65,3.17c1,3,1.84,6,3,8.89a28.55,28.55,0,0,0,2.93,5,58.16,58.16,0,0,0,10.3,11.61c5.09,4.36,10.4,8.48,15.7,12.59,4.33,3.36,9,6.33,13.12,9.92A144.19,144.19,0,0,1,442,392.25c3.1,3.6,6.29,7.37,8,12.07,1.17,3.25,2.88,6.3,4.22,9.49a11.49,11.49,0,0,1,.63,3.33c.47,4.51,1.25,9,1.21,13.56,0,4-1.28,8-1.48,12-.18,3.6-2,6.64-2.66,10-1,4.76-3.2,9.06-5,13.52a47.12,47.12,0,0,1-7.29,12.22,58.72,58.72,0,0,1-13.1,11.74,90.86,90.86,0,0,1-24,11,132.69,132.69,0,0,1-14.14,3.35,151.33,151.33,0,0,1-21.2,2.9C363.19,507.6,359.25,508.15,356.51,508.41Z" transform="translate(-6.21 -8.24)"/><path d="M140.35,304.28c.86,2.46,1.61,4.57,2.35,6.68.84,2.36,1.71,4.72,2.5,7.09,1.21,3.62,2.35,7.26,3.55,10.89,1.66,5,3.37,10,5,15.05.49,1.52,1.62,1.6,2.89,1.65,5,.21,10.1.28,15.12.74,4,.36,8.23.66,12,2,5.6,2,11.36,3.79,15.87,8.16,2.22,2.15,4.13,4.52,6.2,6.78,2.45,2.68,5,5.25,7.74,7.67a28,28,0,0,0,9.66,5.84c5.48,1.86,11.09,3.13,16.88,1a41.65,41.65,0,0,1,5.11-1.33c1.58-.36,2.92.63,3.59,2.46.84,2.28,1.77,4.54,2.64,6.81a9.12,9.12,0,0,1,.44,1.63,58.84,58.84,0,0,0,1,6,65.49,65.49,0,0,1,2.63,19.49,44.27,44.27,0,0,1-5.42,20.26,35.22,35.22,0,0,1-10.19,11.23c-2.58,1.94-5.83,3-8.87,4.3-4.45,1.88-9,3.52-13.48,5.38a58.55,58.55,0,0,0-8.1,3.78c-4.63,2.82-9.34,5.56-13.14,9.58-2.85,3-6,5.79-7.55,9.77a34.68,34.68,0,0,0-2.49,8.07,38,38,0,0,0,2.5,20.12,14,14,0,0,1,.53,2.62c.35,1.59,0,2.05-1.64,2a84.32,84.32,0,0,1-15.63-2.28c-1.73-.44-3.53-.56-5.26-1-3.45-.84-6.89-1.7-10.29-2.71a123.76,123.76,0,0,1-20.3-8.09c-3-1.53-6.27-2.7-9.22-4.38a62.55,62.55,0,0,1-6.9-4.95c-2.81-2.16-5.64-4.31-8.29-6.66-1.76-1.57-3.09-3.62-4.85-5.21a57.54,57.54,0,0,1-8.19-9.6,106.75,106.75,0,0,1-7.36-11.62,78.72,78.72,0,0,1-4.48-11c-1.35-3.9-2.39-7.91-3.56-11.86a3.7,3.7,0,0,1-.18-.71c-.27-5.85-1.91-11.62-1.27-17.51.51-4.75,1.41-9.46,2-14.21.72-5.76,2.72-11.18,4.39-16.67a82.55,82.55,0,0,1,3.89-9.11c1.3-2.94,2.57-5.91,4-8.78,1.58-3.16,3.2-6.33,5.07-9.33,3.72-5.93,7.51-11.82,11.48-17.59,3-4.33,6.2-8.5,9.48-12.62,3-3.84,6.2-7.6,9.5-11.23C134.31,310,137.18,307.4,140.35,304.28ZM244.81,411c-.26-2.51-.62-5-.75-7.53a3.68,3.68,0,0,0-3-3.62,8.82,8.82,0,0,1-2.1-1.2c-2.62-1.75-3.89-4.56-5.35-7.15a3.05,3.05,0,0,0-2.38-1.75c-2.15-.37-4.3-.8-6.45-1.14-4.85-.77-9.1-3-13.18-5.52a54.45,54.45,0,0,1-15.29-14.12c-1.89-2.56-3.91-5-6.78-6.49a42.11,42.11,0,0,0-18.68-5.15c-7.17-.11-14.34,0-21.51,0-2.48,0-2.7-.05-3.52-2.41-.52-1.54-1-3.09-1.52-4.64-1.68-5.18-3.33-10.36-5.05-15.53-.77-2.31-1.63-4.58-2.51-6.85s-1.37-2.49-3.15-.66a66.23,66.23,0,0,0-5,5.95c-2.48,3.21-5,6.42-7.25,9.75-3.23,4.69-6.42,9.41-9.38,14.27-2.35,3.87-4.4,7.93-6.44,12a104.9,104.9,0,0,0-5.07,11,137.3,137.3,0,0,0-4.67,14.48A84.15,84.15,0,0,0,93.26,411c-.28,6.2-.29,12.36,1.07,18.45a60.35,60.35,0,0,0,2.17,8.23,94.54,94.54,0,0,0,5.35,12.14,98.82,98.82,0,0,0,7.86,12,62,62,0,0,0,11.91,12c3.08,2.35,6.28,4.57,9.53,6.68,1.88,1.22,4.18,1.83,5.92,3.17,4.14,3.19,8.94,5.11,13.66,6.89,6.91,2.61,14.15,4.32,21.28,6.32,2.52.71,3.14,0,3.19-2.64.09-3.73.22-7.47.63-11.18.7-6.38,3.58-11.89,7.32-17a52.19,52.19,0,0,1,7.24-7.77A75.24,75.24,0,0,1,205.33,448c3.33-1.8,6.78-3.4,10.23-5a60,60,0,0,1,8.08-3.29,45,45,0,0,0,9.36-4,20.61,20.61,0,0,0,9-10.21A35.68,35.68,0,0,0,244.81,411Z" transform="translate(-6.21 -8.24)"/><path d="M253.06,119.56c-.54,5.79-.79,11.58-1.68,17.27a78.71,78.71,0,0,1-3.91,14.79c-1.33,3.64-3.17,7-4.74,10.51-1.07,2.37-3,4.38-4.58,6.5-1,1.29-2.09,2.46-3.09,3.73a47.54,47.54,0,0,1-12.59,10.56c-4.51,2.79-9.26,5.32-14.58,6.51-3.09.68-6.06,1.93-9.16,2.56a37.86,37.86,0,0,1-7.74.71c-4.06,0-8.13-.43-12.18-.4-4.36,0-8.22-1.67-12.28-2.79a51.27,51.27,0,0,1-26.94-19c-1.37-1.87-3.07-3.53-4.32-5.47a58.4,58.4,0,0,1-4.3-7.78,114.28,114.28,0,0,1-5.63-13.86c-1.34-4.47-2.41-9-3.38-13.66-3-14.43-3-29-2.35-43.54.23-5.24,1.55-10.43,2.38-15.64.31-1.92.56-3.85,1-5.73,1-4.1,1.95-8.22,3.26-12.22,1-3.13,2.53-6.1,3.82-9.15.32-.74.54-1.53.92-2.23,2.35-4.23,4.3-8.76,7.21-12.56a64.5,64.5,0,0,1,11.45-11.83,41.54,41.54,0,0,1,15.38-7.44c6.5-1.61,12.93-1.3,19.4-.46A24.38,24.38,0,0,1,190.94,11c3.84,1.7,7.65,3.5,11.32,5.53A41.73,41.73,0,0,1,208,20.83c2.7,2.19,5.48,4.32,8,6.74a100.36,100.36,0,0,1,7.51,8.31c2.54,3.11,5,6.32,7.23,9.66,2.41,3.62,4.5,7.44,6.72,11.18a23.07,23.07,0,0,1,1.3,2.33,140,140,0,0,1,6,14.51c1.22,3.74,2.92,7.34,3.95,11.13A85.88,85.88,0,0,1,251,96.92C251.83,104.43,252.38,112,253.06,119.56Zm-66.95,62.3A59.26,59.26,0,0,0,212.79,176a46.33,46.33,0,0,0,20.86-20.43,62.57,62.57,0,0,0,3.36-7.69,54.94,54.94,0,0,0,2.34-7.62A73.34,73.34,0,0,0,241,130c.37-5,.55-10.09.43-15.13-.08-4-.69-7.93-1.15-11.88-.36-3.16-.69-6.32-1.32-9.43a80.94,80.94,0,0,0-2.34-8.42c-1.58-4.93-2.93-10-5-14.7-2.5-5.69-5.63-11.11-8.54-16.62-2.78-5.28-6.61-9.83-10.47-14.31a65.13,65.13,0,0,0-12-11c-5.89-4.09-12-7.49-19.22-8.91a30.94,30.94,0,0,0-19.72,2.49,38,38,0,0,0-14.27,12.51,78.74,78.74,0,0,0-10.11,19.29c-.55,1.51-1.21,3-1.65,4.54-.94,3.26-1.77,6.54-2.63,9.83a13.28,13.28,0,0,0-.31,1.67q-.83,6.27-1.64,12.54a120.89,120.89,0,0,0-.93,16.26,171.64,171.64,0,0,0,2.46,28.65,63.61,63.61,0,0,0,2,9.23,125.11,125.11,0,0,0,5.4,13.94,88.08,88.08,0,0,0,6.67,11.57c4.62,6.87,11.24,11.49,18.54,15.06A42.91,42.91,0,0,0,186.11,181.86Z" transform="translate(-6.21 -8.24)"/><path d="M6.21,204c.19-5.87.18-11.75.64-17.59a118,118,0,0,1,2-12.21c.54-2.87,1.18-5.72,1.9-8.54a45.06,45.06,0,0,1,1.94-6q2.79-6.85,5.83-13.6a17.45,17.45,0,0,1,3.75-5.28c1.9-1.88,3.37-4.18,5.24-6.08a43.49,43.49,0,0,1,11.57-8.15c6.47-3.27,13.15-3.76,20.06-3.26,2.47.17,4.88,1,7.34,1.48a34.55,34.55,0,0,1,12.2,5c3,1.84,5.92,3.84,8.89,5.75,6.78,4.36,11.82,10.6,17.34,16.3a52.32,52.32,0,0,1,5.72,7.82c2.62,4,5.23,8,7.56,12.22,2.11,3.81,3.83,7.85,5.73,11.78,1.2,2.48,2.49,4.91,3.6,7.43a51.78,51.78,0,0,1,2.55,6.74c1,3.65,1.83,7.36,2.72,11a4,4,0,0,0,.09.48c2.66,7,2.73,14.47,4.38,21.65.41,1.77.06,3.73,0,5.6,0,6.34.05,12.68-.19,19a26.71,26.71,0,0,1-1.49,6.89c-.77,2.46-2.06,4.78-2.76,7.26-.91,3.22-2.73,6-4.24,8.85a32.51,32.51,0,0,1-3.1,4.48,58.69,58.69,0,0,1-9.08,9.09c-3.78,3.16-8.15,5.19-12.51,7.29A24.22,24.22,0,0,1,96.46,302a4.11,4.11,0,0,0-1.14.41,32.15,32.15,0,0,1-11.53,2.46c-2.5.17-5,.62-7.48.83a62.24,62.24,0,0,1-16.74-1.21c-2.28-.44-4.84-.43-6.82-2.23-.63-.57-1.88-.39-2.78-.73a46.74,46.74,0,0,1-9.41-5.32,54.74,54.74,0,0,1-12.87-12.36c-2-2.69-3.86-5.48-5.65-8.34-3.53-5.64-5.67-11.86-8-18-1.61-4.29-2.38-8.91-3.46-13.39-.7-2.9-1.3-5.82-1.91-8.74A39.39,39.39,0,0,1,8,230.8c-.53-6.22-1-12.45-1.45-18.69-.17-2.68,0-5.38,0-8.07Zm66.84,90.9a67.6,67.6,0,0,0,29.28-6.55A40.71,40.71,0,0,0,119,273.8c4.14-6.23,6-13.3,7-20.58a76.52,76.52,0,0,0,.24-9.22A101.65,101.65,0,0,0,125,224.51c-.61-3.35-1.21-6.71-2.06-10-.8-3.14-2-6.18-2.86-9.29-.95-3.27-1.45-6.71-2.71-9.85-3.27-8.14-6.81-16.18-11.72-23.5-3.28-4.9-6.57-9.83-10.31-14.37a82.43,82.43,0,0,0-14.77-14,48.29,48.29,0,0,0-18.37-8.8,30.29,30.29,0,0,0-16.4.75,27.89,27.89,0,0,0-14.9,12.26,121.58,121.58,0,0,0-5.95,11.16,74.52,74.52,0,0,0-3.73,9.23c-.82,2.53-1,5.24-1.71,7.83-1.85,7.07-2.22,14.34-2.42,21.56a206.12,206.12,0,0,0,.61,21.23c.45,6.15,1.39,12.28,2.36,18.37.54,3.44,1.57,6.8,2.41,10.19.44,1.73.9,3.46,1.43,5.16.73,2.3,1.53,4.58,2.31,6.86a28,28,0,0,0,1.21,3.4c1.24,2.5,2.49,5,3.92,7.39a83.94,83.94,0,0,0,5.31,8.08,40.5,40.5,0,0,0,15.8,12.71,50.84,50.84,0,0,0,10.38,3.33C66.15,294.85,69.64,294.72,73.05,294.94Z" transform="translate(-6.21 -8.24)"/><path d="M262.21,129.11a123.78,123.78,0,0,1,2.52-21.74c.93-4.36,2.56-8.64,2.94-13,.48-5.4,3.79-9.45,5.62-14.17,1.63-4.2,4.15-8.07,6.4-12,1.79-3.13,3.37-6.36,6.12-8.91,1.74-1.62,2.81-3.93,4.32-5.83,2.16-2.7,4.31-5.43,6.7-7.91,3.49-3.64,7.09-7.2,10.86-10.55a64,64,0,0,1,7.11-5c2.13-1.42,4.29-2.79,6.47-4.14a21.73,21.73,0,0,1,2.37-1.17c3.7-1.74,7.36-3.6,11.15-5.15a31.9,31.9,0,0,1,5.65-1.23,6.79,6.79,0,0,0,1.66-.34c3.82-1.88,7.91-1.8,12-1.59a31.51,31.51,0,0,1,5.69,1.2c2.11.52,4.22,1.07,6.31,1.68a38.26,38.26,0,0,1,9,4.42c4.17,2.54,7.43,6,10.56,9.57a39.06,39.06,0,0,1,4.13,6,59,59,0,0,1,6.44,15.15c1.63,6.48,3.53,13,3.37,19.86-.1,4,1.05,8.16.57,12.11-.82,6.86-.19,13.83-2,20.6-.87,3.27-1.05,6.72-1.7,10.06-.55,2.78-1.29,5.52-2,8.27-.46,1.71-1,3.39-1.55,5.08-1.09,3.64-2,7.34-3.31,10.9a93.33,93.33,0,0,1-3.91,8.81c-1.43,3-3,5.91-4.49,8.84-.55,1-1.25,2-1.85,3.06-1.42,2.44-2.72,5-4.27,7.31a33.25,33.25,0,0,1-3.5,4,80.9,80.9,0,0,1-14.1,12.63,63.57,63.57,0,0,1-8.62,4.41,52.43,52.43,0,0,1-18.57,4.38c-4.09.3-8.27-.43-12.38-.9a66.27,66.27,0,0,1-8.14-1.52c-1.64-.39-3.17-1.22-4.78-1.76a63.13,63.13,0,0,1-15.78-8,60.62,60.62,0,0,1-8.37-6.93,61.43,61.43,0,0,1-9.42-11.87,64.15,64.15,0,0,1-7.2-18.12C262.85,140,262.56,134.34,262.21,129.11ZM389.46,84.18c-.32-4.21-.56-8.44-1-12.64-.22-2.26-.77-4.48-1.16-6.72-.46-2.63-.61-5.35-1.44-7.86a58.77,58.77,0,0,0-4.48-10.87c-3-5.29-6.61-10.12-12-13.48a32.23,32.23,0,0,0-18.38-4.81A48.61,48.61,0,0,0,330.67,33a85.52,85.52,0,0,0-20.55,14.19A88.73,88.73,0,0,0,298.58,60c-2.95,4.09-5.95,8.15-8.67,12.38a74.53,74.53,0,0,0-7.24,15.83c-.34,1-.9,1.89-1.27,2.86-.67,1.83-1,3.84-2,5.48-1.55,2.56-2,5.45-2.79,8.19-1.22,4.27-1.81,8.72-2.66,13.09a9.79,9.79,0,0,0-.27,1.68c-.07,4.73-.14,9.45-.14,14.18a22.28,22.28,0,0,0,.35,4.62c.73,3.39,1.61,6.75,2.53,10.09.36,1.31,1.15,2.51,1.48,3.83a26.62,26.62,0,0,0,5.22,9.69c4.56,5.86,9.85,11,16.61,14.44a62.88,62.88,0,0,0,17.61,6.29c4.36.79,8.93.58,13.4.63a33.1,33.1,0,0,0,11.95-2.21,46.37,46.37,0,0,0,17.92-11.9c2.05-2.19,3.95-4.54,5.77-6.92a85.72,85.72,0,0,0,11.08-20.22c1.26-3.15,2.36-6.37,3.41-9.6,1.25-3.85,2.62-7.68,3.5-11.61,1.24-5.54,2-11.18,3.11-16.73A119,119,0,0,0,389.46,84.18Z" transform="translate(-6.21 -8.24)"/><path d="M441.9,306.72a31.69,31.69,0,0,1-13.06-1.66c-1.65-.61-3.52-.56-5.23-1-3.64-1-7.51-1.63-10.76-3.39-2.92-1.57-6.23-2-9-4-2.16-1.53-4.79-2.54-7.13-4-4.3-2.67-8.41-5.57-11.65-9.47a104,104,0,0,1-6-8.48,8,8,0,0,1-.72-2.29c-1-3.41-2.48-6.66-2.61-10.3-.12-3.33-.74-6.65-.65-10a62,62,0,0,1,2.13-14.93c.64-2.34,1-4.76,1.63-7.1.59-2.09,1.41-4.11,2.17-6.16,1.2-3.25,2.39-6.5,3.65-9.73a27.45,27.45,0,0,1,1.67-3.4c2.91-5.11,5.72-10.28,8.82-15.28A59.64,59.64,0,0,1,402,186c5.5-5.83,10.58-12.09,17-17.08,3.35-2.63,6.45-5.56,9.76-8.22a39.59,39.59,0,0,1,5.06-3.3c2.59-1.49,5.21-2.93,7.87-4.28,3.24-1.64,6.45-3.37,9.82-4.69a60.64,60.64,0,0,1,13.5-3.84,62.48,62.48,0,0,1,8.93-.78c5.72,0,11,1.7,16.07,4.18,4.69,2.27,7.79,6.25,11.22,9.87a11.48,11.48,0,0,1,1.84,3.42c1.12,2.6,2.2,5.22,3.21,7.87a6.58,6.58,0,0,1,.4,4.25c-.34,1.3.29,2.86.51,4.3A38.41,38.41,0,0,1,508,183c.1,6.19.19,12.39,0,18.58-.12,3.29-1,6.56-1.33,9.85a125,125,0,0,1-4,20.74c-.65,2.33-.93,4.76-1.54,7.11-.94,3.58-1.91,7.17-3.07,10.69-1.23,3.75-2.67,7.43-4.05,11.13s-2.7,7.55-4.33,11.2c-1.17,2.62-3,5-4.2,7.56a43.92,43.92,0,0,1-6.16,9c-3.27,4-6.79,7.85-11.47,10.39-2.33,1.26-4.48,2.84-6.84,4a26.72,26.72,0,0,1-4.79,1.52c-.54.15-1.22,0-1.68.24C450.53,307.13,446.27,306.8,441.9,306.72Zm55.72-114.1c-.29-6.24-.59-12.37-2.37-18.41-1.09-3.7-1.89-7.41-4.9-10.12a6,6,0,0,1-.68-1,20.51,20.51,0,0,0-8.06-6.86c-5.53-2.5-11.39-1.95-17.05-.63a57.73,57.73,0,0,0-12.13,4,107.84,107.84,0,0,0-12.54,6.74,127.86,127.86,0,0,0-18.82,15,116.89,116.89,0,0,0-17.58,21.47c-2.55,4-4.8,8.26-7,12.47a69.94,69.94,0,0,0-3.84,8.35c-1.36,3.71-2.32,7.56-3.57,11.32-1.74,5.19-2.29,10.59-2.92,16a8.16,8.16,0,0,0,0,1.71c.28,2.83.73,5.65.85,8.49a25.68,25.68,0,0,0,3.5,11.06,30.11,30.11,0,0,0,12.11,11.65,92.27,92.27,0,0,0,11.6,5.58,124.59,124.59,0,0,0,14.33,4.75,59,59,0,0,0,16.72,1.58,32.28,32.28,0,0,0,16.27-5.14,39.89,39.89,0,0,0,12-12,80.26,80.26,0,0,0,8.37-16.14c1-2.72,2-5.48,2.95-8.21.83-2.28,1.81-4.51,2.5-6.82,1.23-4.1,2.31-8.25,3.44-12.38.79-2.89,1.74-5.74,2.28-8.68,1.13-6.23,2.14-12.48,3-18.75C496.76,202.68,497.12,197.64,497.62,192.62Z" transform="translate(-6.21 -8.24)"/><path d="M347.16,394.62c6.8-.83,13.33.89,20,1.62a5.36,5.36,0,0,1,1.18.29c2,.79,3.22,2.59,2.91,4.29a4.22,4.22,0,0,1-4.71,3.33c-2.66-.31-5.3-.82-8-1.18a46,46,0,0,0-5.1-.48c-4.16-.07-8.32-.14-12.47,0a51.41,51.41,0,0,0-6.5.94,42.54,42.54,0,0,0-6.91,1.27,105.37,105.37,0,0,0-9.74,4.14c-3.09,1.42-5.16,4.09-7.56,6.37a20.75,20.75,0,0,0-5.58,9.26c-.78,2.63-1.28,5.34-1.83,8-.36,1.77-2.28,3.6-3.86,3.53s-3.42-2-3.55-3.78c-.31-4.09,1-7.82,2.29-11.62,1.64-4.8,4.94-8.55,7.72-12.61,1.07-1.57,3.13-2.47,4.76-3.65a48.86,48.86,0,0,1,17.63-7.9C334.17,394.93,340.62,393.82,347.16,394.62Z" transform="translate(-6.21 -8.24)"/><path d="M259.8,222.16c2.76.34,7.75.93,12.73,1.61,2.72.37,5.41.91,8.13,1.34,2.52.4,4.3,2.63,3.74,4.73a4.34,4.34,0,0,1-5.64,3.15c-2.49-.69-5-1.21-7.58-1.65a72.9,72.9,0,0,0-17.26-.9c-3.82.24-7.67.57-11.33,2.3-2,.93-3.83,1.93-5.7,3a14.1,14.1,0,0,0-5.65,6.62,4,4,0,0,1-5.3,2.08c-2-1-2.57-2.9-1.64-5.18,2.51-6.11,7-10,12.93-12.81C243.73,223.34,250.52,222.58,259.8,222.16Z" transform="translate(-6.21 -8.24)"/><path d="M236.62,256.38a12.78,12.78,0,0,1,10.23,3.87,9.7,9.7,0,0,1,2.51,4.57c.24,1.22-.53,2.83-1.26,4a8.11,8.11,0,0,1-2.95,2.84c-4.42,2.3-8.91,3.62-13.92,1.28-2.23-1-4.34-1.88-5.81-4a6.75,6.75,0,0,1,1.37-9.22C229.74,257.58,233,256.11,236.62,256.38Z" transform="translate(-6.21 -8.24)"/><path d="M102.28,425.38c-.14-3.46-.51-7.2-.4-10.93a75.8,75.8,0,0,1,2-14.94,109.32,109.32,0,0,1,5.62-17.31,98.07,98.07,0,0,1,13.76-23.79c1.12-1.39,2.51-2.44,4.41-1.87,2.73.8,3.61,3.74,1.93,6.27s-3.41,4.74-4.84,7.27a151,151,0,0,0-7.16,13.54,104.81,104.81,0,0,0-5.56,15.3A67,67,0,0,0,110,421.19a55.13,55.13,0,0,0,9.65,27c3.34,5,7.56,9.13,11.88,13.19a3.45,3.45,0,0,1,1.41,3.39c-.64,3.49-3.51,4.69-6.27,2.42a69.81,69.81,0,0,1-12.59-13.44,63.7,63.7,0,0,1-8-14.5A77.79,77.79,0,0,1,102.28,425.38Z" transform="translate(-6.21 -8.24)"/><path d="M188.53,390.8a8.47,8.47,0,0,1,2.69-5.15,2.17,2.17,0,0,1,3.24-.23,28.34,28.34,0,0,0,7.26,4.3,6.15,6.15,0,0,1,1.19.85c.83.66.9,1.48,0,1.95A23.47,23.47,0,0,1,190.46,395C188.84,394.92,188.51,394,188.53,390.8Z" transform="translate(-6.21 -8.24)"/><path d="M137.62,99.15c.77-7.46,1.22-15,2.37-22.34,1.76-11.3,4.9-22.24,10.37-32.39A49,49,0,0,1,159,32.36c6.38-6.2,13.77-8.84,22.75-6.43a44,44,0,0,1,16.6,8.4,45.34,45.34,0,0,1,10,11.14,4.29,4.29,0,0,1-.16,5c-1.08,1.23-3.73,1.76-5.11.62a19.6,19.6,0,0,1-3.19-3.91,34,34,0,0,0-7.79-7.64,41.2,41.2,0,0,0-7.13-4.13,22,22,0,0,0-11.85-2.14,11.18,11.18,0,0,0-5.35,2.14A36.92,36.92,0,0,0,161.22,42a60.14,60.14,0,0,0-8.31,16,102.07,102.07,0,0,0-5.12,20,126.6,126.6,0,0,0-1.64,24.81,137.09,137.09,0,0,0,2.56,22.78,132.73,132.73,0,0,0,6,20.29c.15.38.27.77.39,1.16.8,2.42.1,4.21-2,5.05a4.15,4.15,0,0,1-5.42-2.36c-1.5-4.2-2.87-8.46-4.17-12.73-1-3.19-1.8-6.42-2.6-9.65a38.91,38.91,0,0,1-.88-5C139.23,114.6,138.44,106.91,137.62,99.15Z" transform="translate(-6.21 -8.24)"/><path d="M33.67,202.63c.66,7.33,1,14.58,2.07,21.73.72,5,2.27,9.95,3.6,14.89.94,3.52,2,7,3.26,10.44,1.66,4.49,3.58,8.89,5.4,13.32.46,1.13,1,2.22,1.46,3.36a3.87,3.87,0,0,1-1.86,4.9c-2.07,1-3.9.54-4.91-1.57-2.08-4.32-4.07-8.68-5.89-13.12-1.53-3.76-2.78-7.63-4.1-11.47-.61-1.75-1.14-3.54-1.58-5.34-.73-3-1.43-6-2-9-.84-4.39-1.69-8.78-2.28-13.21a96.53,96.53,0,0,1-.7-10.2c-.11-4.63-.16-9.27,0-13.9a65.45,65.45,0,0,1,1.18-8.21,70.82,70.82,0,0,1,1.95-9.78c1.55-4.77,2.09-9.88,4.72-14.31,1.24-2.09,2.11-4.42,3.51-6.39,3.1-4.37,6.47-8.58,11.42-11.05a18.83,18.83,0,0,1,14-1.07c7.32,2.12,13.3,6.36,18.41,11.91a16.4,16.4,0,0,1,2,2.76,4.11,4.11,0,0,1-.8,4.92,4.26,4.26,0,0,1-5.36-.41c-2.24-2.22-4.39-4.56-6.78-6.61-4.19-3.59-9-5.78-14.68-5.33-3.72.29-6.15,2.58-8.43,5.19a36.53,36.53,0,0,0-6,10.52c-2.29,5.59-4.68,11.2-5.56,17.19C34.76,189.38,34.33,196,33.67,202.63Z" transform="translate(-6.21 -8.24)"/><path d="M288.76,126.69c.33,6.22.48,10.94,1.72,15.69,1.49,5.74,4.36,10.64,7.43,15.52,1.39,2.21,1.27,3.95-.57,5.36a3.76,3.76,0,0,1-5.4-.65,40.34,40.34,0,0,1-7.33-13.07c-.55-1.69-1.11-3.37-1.63-5.06a53.83,53.83,0,0,1-1.56-22.2A90.14,90.14,0,0,1,286,103.13,96.62,96.62,0,0,1,295.1,84c3.39-5.53,7-11,10.9-16.14A110.54,110.54,0,0,1,315.71,57a122.49,122.49,0,0,1,10.64-9.87c5.47-4.37,11.34-8,18.37-9.76a40.59,40.59,0,0,1,10.36-1.22c7.23.13,12.8,3.48,16.71,9.36,2.13,3.21,1.3,5.39-1.23,6.58-1.81.86-4.13,0-5.36-2.22-2.38-4.31-6.14-5.72-10.76-5.8a31.36,31.36,0,0,0-14.36,3.34c-7.05,3.41-12.57,8.74-18,14.17a142.34,142.34,0,0,0-12.25,14.47,107.91,107.91,0,0,0-12.44,20.54A113.85,113.85,0,0,0,291.23,113C289.85,117.86,289.39,123,288.76,126.69Z" transform="translate(-6.21 -8.24)"/><path d="M395.15,253.87a88.64,88.64,0,0,1,2.77-17.6,82.59,82.59,0,0,1,7.69-19.43,108.22,108.22,0,0,1,13.31-19.11,152.48,152.48,0,0,1,17.67-17.17A86.91,86.91,0,0,1,453,169.63c6.7-3.4,13.82-5.59,21.53-4.7a16.27,16.27,0,0,1,7.28,3.2c.71.48.77,1.05-.08,1.73a26.23,26.23,0,0,0-3.43,3.4,2.33,2.33,0,0,1-3.21.62c-2.73-1.38-5.48-1.35-8.51-.73a46.7,46.7,0,0,0-17.05,7.46,101.3,101.3,0,0,0-16.16,13.29c-3.26,3.39-6.7,6.65-9.67,10.28a99.37,99.37,0,0,0-7.63,11,127.24,127.24,0,0,0-6.59,11.94,58.78,58.78,0,0,0-3,8.45c-.82,2.63-1.48,5.31-2.16,8a14.61,14.61,0,0,0-.56,3.12c-.15,3.83-.16,7.66-.29,11.49-.19,5.62,2.56,9.57,7.08,12.5a16,16,0,0,0,2.83,1.35c2.54,1,3.85,3.27,2.83,5.35s-3.3,3.3-6.15,1.91c-3.46-1.7-6.76-3.61-9.22-6.57a65.88,65.88,0,0,1-4.58-6.89,2.84,2.84,0,0,1-.27-1.18C395.7,261,395.43,257.44,395.15,253.87Z" transform="translate(-6.21 -8.24)"/></svg>